<svg width="126" height="124" viewBox="0 0 126 124" fill="none" xmlns="http://www.w3.org/2000/svg">
<rect width="126" height="124" fill="white"/>
<g clip-path="url(#clip0_5_2)">
<path fill-rule="evenodd" clip-rule="evenodd" d="M17.8872 13H108.113C108.113 13 112.083 13 112.083 16.9699V107.195C112.083 107.195 112.083 111.165 108.113 111.165H17.8872C17.8872 111.165 13.9173 111.165 13.9173 107.195V16.9699C13.9173 16.9699 13.9173 13 17.8872 13ZM19.8722 16.9699H106.128C106.128 16.9699 108.113 16.9699 108.113 18.9549V105.211C108.113 105.211 108.113 107.195 106.128 107.195H19.8722C19.8722 107.195 17.8872 107.195 17.8872 105.211V18.9549C17.8872 18.9549 17.8872 16.9699 19.8722 16.9699Z" fill="black"/>
<g clip-path="url(#clip1_5_2)">
<path fill-rule="evenodd" clip-rule="evenodd" d="M58.7065 20.5789H61.712V23.5844H58.7065V20.5789Z" fill="black"/>
<path fill-rule="evenodd" clip-rule="evenodd" d="M61.5688 20.5789H64.5743V23.5844H61.5688V20.5789Z" fill="black"/>
<path fill-rule="evenodd" clip-rule="evenodd" d="M70.1558 20.5789H73.1613V23.5844H70.1558V20.5789Z" fill="black"/>
<path fill-rule="evenodd" clip-rule="evenodd" d="M75.8805 20.5789H78.8859V23.5844H75.8805V20.5789Z" fill="black"/>
<path fill-rule="evenodd" clip-rule="evenodd" d="M78.7428 20.5789H81.7483V23.5844H78.7428V20.5789Z" fill="black"/>
<path fill-rule="evenodd" clip-rule="evenodd" d="M44.3949 23.4413H47.4003V26.4467H44.3949V23.4413Z" fill="black"/>
<path fill-rule="evenodd" clip-rule="evenodd" d="M50.1195 23.4413H53.125V26.4467H50.1195V23.4413Z" fill="black"/>
<path fill-rule="evenodd" clip-rule="evenodd" d="M52.9818 23.4413H55.9873V26.4467H52.9818V23.4413Z" fill="black"/>
<path fill-rule="evenodd" clip-rule="evenodd" d="M55.8442 23.4413H58.8496V26.4467H55.8442V23.4413Z" fill="black"/>
<path fill-rule="evenodd" clip-rule="evenodd" d="M58.7065 23.4413H61.712V26.4467H58.7065V23.4413Z" fill="black"/>
<path fill-rule="evenodd" clip-rule="evenodd" d="M61.5688 23.4413H64.5743V26.4467H61.5688V23.4413Z" fill="black"/>
<path fill-rule="evenodd" clip-rule="evenodd" d="M78.7428 23.4413H81.7483V26.4467H78.7428V23.4413Z" fill="black"/>
<path fill-rule="evenodd" clip-rule="evenodd" d="M44.3949 26.3036H47.4003V29.309H44.3949V26.3036Z" fill="black"/>
<path fill-rule="evenodd" clip-rule="evenodd" d="M47.2572 26.3036H50.2626V29.309H47.2572V26.3036Z" fill="black"/>
<path fill-rule="evenodd" clip-rule="evenodd" d="M55.8442 26.3036H58.8496V29.309H55.8442V26.3036Z" fill="black"/>
<path fill-rule="evenodd" clip-rule="evenodd" d="M70.1558 26.3036H73.1613V29.309H70.1558V26.3036Z" fill="black"/>
<path fill-rule="evenodd" clip-rule="evenodd" d="M75.8805 26.3036H78.8859V29.309H75.8805V26.3036Z" fill="black"/>
<path fill-rule="evenodd" clip-rule="evenodd" d="M78.7428 26.3036H81.7483V29.309H78.7428V26.3036Z" fill="black"/>
<path fill-rule="evenodd" clip-rule="evenodd" d="M44.3949 29.1659H47.4003V32.1714H44.3949V29.1659Z" fill="black"/>
<path fill-rule="evenodd" clip-rule="evenodd" d="M47.2572 29.1659H50.2626V32.1714H47.2572V29.1659Z" fill="black"/>
<path fill-rule="evenodd" clip-rule="evenodd" d="M55.8442 29.1659H58.8496V32.1714H55.8442V29.1659Z" fill="black"/>
<path fill-rule="evenodd" clip-rule="evenodd" d="M58.7065 29.1659H61.712V32.1714H58.7065V29.1659Z" fill="black"/>
<path fill-rule="evenodd" clip-rule="evenodd" d="M70.1558 29.1659H73.1613V32.1714H70.1558V29.1659Z" fill="black"/>
<path fill-rule="evenodd" clip-rule="evenodd" d="M78.7428 29.1659H81.7483V32.1714H78.7428V29.1659Z" fill="black"/>
<path fill-rule="evenodd" clip-rule="evenodd" d="M44.3949 32.0282H47.4003V35.0337H44.3949V32.0282Z" fill="black"/>
<path fill-rule="evenodd" clip-rule="evenodd" d="M55.8442 32.0282H58.8496V35.0337H55.8442V32.0282Z" fill="black"/>
<path fill-rule="evenodd" clip-rule="evenodd" d="M61.5688 32.0282H64.5743V35.0337H61.5688V32.0282Z" fill="black"/>
<path fill-rule="evenodd" clip-rule="evenodd" d="M67.2935 32.0282H70.2989V35.0337H67.2935V32.0282Z" fill="black"/>
<path fill-rule="evenodd" clip-rule="evenodd" d="M73.0182 32.0282H76.0236V35.0337H73.0182V32.0282Z" fill="black"/>
<path fill-rule="evenodd" clip-rule="evenodd" d="M78.7428 32.0282H81.7483V35.0337H78.7428V32.0282Z" fill="black"/>
<path fill-rule="evenodd" clip-rule="evenodd" d="M44.3949 34.8906H47.4003V37.896H44.3949V34.8906Z" fill="black"/>
<path fill-rule="evenodd" clip-rule="evenodd" d="M47.2572 34.8906H50.2626V37.896H47.2572V34.8906Z" fill="black"/>
<path fill-rule="evenodd" clip-rule="evenodd" d="M50.1195 34.8906H53.125V37.896H50.1195V34.8906Z" fill="black"/>
<path fill-rule="evenodd" clip-rule="evenodd" d="M52.9818 34.8906H55.9873V37.896H52.9818V34.8906Z" fill="black"/>
<path fill-rule="evenodd" clip-rule="evenodd" d="M55.8442 34.8906H58.8496V37.896H55.8442V34.8906Z" fill="black"/>
<path fill-rule="evenodd" clip-rule="evenodd" d="M67.2935 34.8906H70.2989V37.896H67.2935V34.8906Z" fill="black"/>
<path fill-rule="evenodd" clip-rule="evenodd" d="M70.1558 34.8906H73.1613V37.896H70.1558V34.8906Z" fill="black"/>
<path fill-rule="evenodd" clip-rule="evenodd" d="M73.0182 34.8906H76.0236V37.896H73.0182V34.8906Z" fill="black"/>
<path fill-rule="evenodd" clip-rule="evenodd" d="M44.3949 37.7529H47.4003V40.7584H44.3949V37.7529Z" fill="black"/>
<path fill-rule="evenodd" clip-rule="evenodd" d="M50.1195 37.7529H53.125V40.7584H50.1195V37.7529Z" fill="black"/>
<path fill-rule="evenodd" clip-rule="evenodd" d="M55.8442 37.7529H58.8496V40.7584H55.8442V37.7529Z" fill="black"/>
<path fill-rule="evenodd" clip-rule="evenodd" d="M61.5688 37.7529H64.5743V40.7584H61.5688V37.7529Z" fill="black"/>
<path fill-rule="evenodd" clip-rule="evenodd" d="M67.2935 37.7529H70.2989V40.7584H67.2935V37.7529Z" fill="black"/>
<path fill-rule="evenodd" clip-rule="evenodd" d="M73.0182 37.7529H76.0236V40.7584H73.0182V37.7529Z" fill="black"/>
<path fill-rule="evenodd" clip-rule="evenodd" d="M78.7428 37.7529H81.7483V40.7584H78.7428V37.7529Z" fill="black"/>
<path fill-rule="evenodd" clip-rule="evenodd" d="M52.9818 40.6152H55.9873V43.6207H52.9818V40.6152Z" fill="black"/>
<path fill-rule="evenodd" clip-rule="evenodd" d="M55.8442 40.6152H58.8496V43.6207H55.8442V40.6152Z" fill="black"/>
<path fill-rule="evenodd" clip-rule="evenodd" d="M58.7065 40.6152H61.712V43.6207H58.7065V40.6152Z" fill="black"/>
<path fill-rule="evenodd" clip-rule="evenodd" d="M64.4312 40.6152H67.4366V43.6207H64.4312V40.6152Z" fill="black"/>
<path fill-rule="evenodd" clip-rule="evenodd" d="M67.2935 40.6152H70.2989V43.6207H67.2935V40.6152Z" fill="black"/>
<path fill-rule="evenodd" clip-rule="evenodd" d="M70.1558 40.6152H73.1613V43.6207H70.1558V40.6152Z" fill="black"/>
<path fill-rule="evenodd" clip-rule="evenodd" d="M75.8805 40.6152H78.8859V43.6207H75.8805V40.6152Z" fill="black"/>
<path fill-rule="evenodd" clip-rule="evenodd" d="M27.2209 43.4776H30.2264V46.483H27.2209V43.4776Z" fill="black"/>
<path fill-rule="evenodd" clip-rule="evenodd" d="M35.8079 43.4776H38.8133V46.483H35.8079V43.4776Z" fill="black"/>
<path fill-rule="evenodd" clip-rule="evenodd" d="M38.6702 43.4776H41.6757V46.483H38.6702V43.4776Z" fill="black"/>
<path fill-rule="evenodd" clip-rule="evenodd" d="M41.5326 43.4776H44.538V46.483H41.5326V43.4776Z" fill="black"/>
<path fill-rule="evenodd" clip-rule="evenodd" d="M44.3949 43.4776H47.4003V46.483H44.3949V43.4776Z" fill="black"/>
<path fill-rule="evenodd" clip-rule="evenodd" d="M47.2572 43.4776H50.2626V46.483H47.2572V43.4776Z" fill="black"/>
<path fill-rule="evenodd" clip-rule="evenodd" d="M52.9818 43.4776H55.9873V46.483H52.9818V43.4776Z" fill="black"/>
<path fill-rule="evenodd" clip-rule="evenodd" d="M61.5688 43.4776H64.5743V46.483H61.5688V43.4776Z" fill="black"/>
<path fill-rule="evenodd" clip-rule="evenodd" d="M70.1558 43.4776H73.1613V46.483H70.1558V43.4776Z" fill="black"/>
<path fill-rule="evenodd" clip-rule="evenodd" d="M75.8805 43.4776H78.8859V46.483H75.8805V43.4776Z" fill="black"/>
<path fill-rule="evenodd" clip-rule="evenodd" d="M78.7428 43.4776H81.7483V46.483H78.7428V43.4776Z" fill="black"/>
<path fill-rule="evenodd" clip-rule="evenodd" d="M81.6051 43.4776H84.6106V46.483H81.6051V43.4776Z" fill="black"/>
<path fill-rule="evenodd" clip-rule="evenodd" d="M87.3298 43.4776H90.3352V46.483H87.3298V43.4776Z" fill="black"/>
<path fill-rule="evenodd" clip-rule="evenodd" d="M90.1921 43.4776H93.1976V46.483H90.1921V43.4776Z" fill="black"/>
<path fill-rule="evenodd" clip-rule="evenodd" d="M93.0545 43.4776H96.0599V46.483H93.0545V43.4776Z" fill="black"/>
<path fill-rule="evenodd" clip-rule="evenodd" d="M95.9168 43.4776H98.9223V46.483H95.9168V43.4776Z" fill="black"/>
<path fill-rule="evenodd" clip-rule="evenodd" d="M98.7791 43.4776H101.785V46.483H98.7791V43.4776Z" fill="black"/>
<path fill-rule="evenodd" clip-rule="evenodd" d="M21.4962 46.3399H24.5017V49.3453H21.4962V46.3399Z" fill="black"/>
<path fill-rule="evenodd" clip-rule="evenodd" d="M27.2209 46.3399H30.2264V49.3453H27.2209V46.3399Z" fill="black"/>
<path fill-rule="evenodd" clip-rule="evenodd" d="M30.0832 46.3399H33.0887V49.3453H30.0832V46.3399Z" fill="black"/>
<path fill-rule="evenodd" clip-rule="evenodd" d="M35.8079 46.3399H38.8133V49.3453H35.8079V46.3399Z" fill="black"/>
<path fill-rule="evenodd" clip-rule="evenodd" d="M41.5326 46.3399H44.538V49.3453H41.5326V46.3399Z" fill="black"/>
<path fill-rule="evenodd" clip-rule="evenodd" d="M50.1195 46.3399H53.125V49.3453H50.1195V46.3399Z" fill="black"/>
<path fill-rule="evenodd" clip-rule="evenodd" d="M52.9818 46.3399H55.9873V49.3453H52.9818V46.3399Z" fill="black"/>
<path fill-rule="evenodd" clip-rule="evenodd" d="M58.7065 46.3399H61.712V49.3453H58.7065V46.3399Z" fill="black"/>
<path fill-rule="evenodd" clip-rule="evenodd" d="M67.2935 46.3399H70.2989V49.3453H67.2935V46.3399Z" fill="black"/>
<path fill-rule="evenodd" clip-rule="evenodd" d="M70.1558 46.3399H73.1613V49.3453H70.1558V46.3399Z" fill="black"/>
<path fill-rule="evenodd" clip-rule="evenodd" d="M78.7428 46.3399H81.7483V49.3453H78.7428V46.3399Z" fill="black"/>
<path fill-rule="evenodd" clip-rule="evenodd" d="M87.3298 46.3399H90.3352V49.3453H87.3298V46.3399Z" fill="black"/>
<path fill-rule="evenodd" clip-rule="evenodd" d="M93.0545 46.3399H96.0599V49.3453H93.0545V46.3399Z" fill="black"/>
<path fill-rule="evenodd" clip-rule="evenodd" d="M98.7791 46.3399H101.785V49.3453H98.7791V46.3399Z" fill="black"/>
<path fill-rule="evenodd" clip-rule="evenodd" d="M101.641 46.3399H104.647V49.3453H101.641V46.3399Z" fill="black"/>
<path fill-rule="evenodd" clip-rule="evenodd" d="M21.4962 49.2022H24.5017V52.2076H21.4962V49.2022Z" fill="black"/>
<path fill-rule="evenodd" clip-rule="evenodd" d="M30.0832 49.2022H33.0887V52.2076H30.0832V49.2022Z" fill="black"/>
<path fill-rule="evenodd" clip-rule="evenodd" d="M35.8079 49.2022H38.8133V52.2076H35.8079V49.2022Z" fill="black"/>
<path fill-rule="evenodd" clip-rule="evenodd" d="M38.6702 49.2022H41.6757V52.2076H38.6702V49.2022Z" fill="black"/>
<path fill-rule="evenodd" clip-rule="evenodd" d="M41.5326 49.2022H44.538V52.2076H41.5326V49.2022Z" fill="black"/>
<path fill-rule="evenodd" clip-rule="evenodd" d="M44.3949 49.2022H47.4003V52.2076H44.3949V49.2022Z" fill="black"/>
<path fill-rule="evenodd" clip-rule="evenodd" d="M52.9818 49.2022H55.9873V52.2076H52.9818V49.2022Z" fill="black"/>
<path fill-rule="evenodd" clip-rule="evenodd" d="M58.7065 49.2022H61.712V52.2076H58.7065V49.2022Z" fill="black"/>
<path fill-rule="evenodd" clip-rule="evenodd" d="M67.2935 49.2022H70.2989V52.2076H67.2935V49.2022Z" fill="black"/>
<path fill-rule="evenodd" clip-rule="evenodd" d="M70.1558 49.2022H73.1613V52.2076H70.1558V49.2022Z" fill="black"/>
<path fill-rule="evenodd" clip-rule="evenodd" d="M78.7428 49.2022H81.7483V52.2076H78.7428V49.2022Z" fill="black"/>
<path fill-rule="evenodd" clip-rule="evenodd" d="M81.6051 49.2022H84.6106V52.2076H81.6051V49.2022Z" fill="black"/>
<path fill-rule="evenodd" clip-rule="evenodd" d="M90.1921 49.2022H93.1976V52.2076H90.1921V49.2022Z" fill="black"/>
<path fill-rule="evenodd" clip-rule="evenodd" d="M95.9168 49.2022H98.9223V52.2076H95.9168V49.2022Z" fill="black"/>
<path fill-rule="evenodd" clip-rule="evenodd" d="M101.641 49.2022H104.647V52.2076H101.641V49.2022Z" fill="black"/>
<path fill-rule="evenodd" clip-rule="evenodd" d="M21.4962 52.0645H24.5017V55.07H21.4962V52.0645Z" fill="black"/>
<path fill-rule="evenodd" clip-rule="evenodd" d="M27.2209 52.0645H30.2264V55.07H27.2209V52.0645Z" fill="black"/>
<path fill-rule="evenodd" clip-rule="evenodd" d="M41.5326 52.0645H44.538V55.07H41.5326V52.0645Z" fill="black"/>
<path fill-rule="evenodd" clip-rule="evenodd" d="M44.3949 52.0645H47.4003V55.07H44.3949V52.0645Z" fill="black"/>
<path fill-rule="evenodd" clip-rule="evenodd" d="M50.1195 52.0645H53.125V55.07H50.1195V52.0645Z" fill="black"/>
<path fill-rule="evenodd" clip-rule="evenodd" d="M52.9818 52.0645H55.9873V55.07H52.9818V52.0645Z" fill="black"/>
<path fill-rule="evenodd" clip-rule="evenodd" d="M55.8442 52.0645H58.8496V55.07H55.8442V52.0645Z" fill="black"/>
<path fill-rule="evenodd" clip-rule="evenodd" d="M58.7065 52.0645H61.712V55.07H58.7065V52.0645Z" fill="black"/>
<path fill-rule="evenodd" clip-rule="evenodd" d="M64.4312 52.0645H67.4366V55.07H64.4312V52.0645Z" fill="black"/>
<path fill-rule="evenodd" clip-rule="evenodd" d="M67.2935 52.0645H70.2989V55.07H67.2935V52.0645Z" fill="black"/>
<path fill-rule="evenodd" clip-rule="evenodd" d="M70.1558 52.0645H73.1613V55.07H70.1558V52.0645Z" fill="black"/>
<path fill-rule="evenodd" clip-rule="evenodd" d="M75.8805 52.0645H78.8859V55.07H75.8805V52.0645Z" fill="black"/>
<path fill-rule="evenodd" clip-rule="evenodd" d="M78.7428 52.0645H81.7483V55.07H78.7428V52.0645Z" fill="black"/>
<path fill-rule="evenodd" clip-rule="evenodd" d="M84.4675 52.0645H87.4729V55.07H84.4675V52.0645Z" fill="black"/>
<path fill-rule="evenodd" clip-rule="evenodd" d="M87.3298 52.0645H90.3352V55.07H87.3298V52.0645Z" fill="black"/>
<path fill-rule="evenodd" clip-rule="evenodd" d="M21.4962 54.9269H24.5017V57.9323H21.4962V54.9269Z" fill="black"/>
<path fill-rule="evenodd" clip-rule="evenodd" d="M30.0832 54.9269H33.0887V57.9323H30.0832V54.9269Z" fill="black"/>
<path fill-rule="evenodd" clip-rule="evenodd" d="M32.9456 54.9269H35.951V57.9323H32.9456V54.9269Z" fill="black"/>
<path fill-rule="evenodd" clip-rule="evenodd" d="M35.8079 54.9269H38.8133V57.9323H35.8079V54.9269Z" fill="black"/>
<path fill-rule="evenodd" clip-rule="evenodd" d="M38.6702 54.9269H41.6757V57.9323H38.6702V54.9269Z" fill="black"/>
<path fill-rule="evenodd" clip-rule="evenodd" d="M41.5326 54.9269H44.538V57.9323H41.5326V54.9269Z" fill="black"/>
<path fill-rule="evenodd" clip-rule="evenodd" d="M44.3949 54.9269H47.4003V57.9323H44.3949V54.9269Z" fill="black"/>
<path fill-rule="evenodd" clip-rule="evenodd" d="M52.9818 54.9269H55.9873V57.9323H52.9818V54.9269Z" fill="black"/>
<path fill-rule="evenodd" clip-rule="evenodd" d="M58.7065 54.9269H61.712V57.9323H58.7065V54.9269Z" fill="black"/>
<path fill-rule="evenodd" clip-rule="evenodd" d="M64.4312 54.9269H67.4366V57.9323H64.4312V54.9269Z" fill="black"/>
<path fill-rule="evenodd" clip-rule="evenodd" d="M67.2935 54.9269H70.2989V57.9323H67.2935V54.9269Z" fill="black"/>
<path fill-rule="evenodd" clip-rule="evenodd" d="M73.0182 54.9269H76.0236V57.9323H73.0182V54.9269Z" fill="black"/>
<path fill-rule="evenodd" clip-rule="evenodd" d="M81.6051 54.9269H84.6106V57.9323H81.6051V54.9269Z" fill="black"/>
<path fill-rule="evenodd" clip-rule="evenodd" d="M84.4675 54.9269H87.4729V57.9323H84.4675V54.9269Z" fill="black"/>
<path fill-rule="evenodd" clip-rule="evenodd" d="M93.0545 54.9269H96.0599V57.9323H93.0545V54.9269Z" fill="black"/>
<path fill-rule="evenodd" clip-rule="evenodd" d="M98.7791 54.9269H101.785V57.9323H98.7791V54.9269Z" fill="black"/>
<path fill-rule="evenodd" clip-rule="evenodd" d="M21.4962 57.7892H24.5017V60.7946H21.4962V57.7892Z" fill="black"/>
<path fill-rule="evenodd" clip-rule="evenodd" d="M27.2209 57.7892H30.2264V60.7946H27.2209V57.7892Z" fill="black"/>
<path fill-rule="evenodd" clip-rule="evenodd" d="M32.9456 57.7892H35.951V60.7946H32.9456V57.7892Z" fill="black"/>
<path fill-rule="evenodd" clip-rule="evenodd" d="M41.5326 57.7892H44.538V60.7946H41.5326V57.7892Z" fill="black"/>
<path fill-rule="evenodd" clip-rule="evenodd" d="M44.3949 57.7892H47.4003V60.7946H44.3949V57.7892Z" fill="black"/>
<path fill-rule="evenodd" clip-rule="evenodd" d="M52.9818 57.7892H55.9873V60.7946H52.9818V57.7892Z" fill="black"/>
<path fill-rule="evenodd" clip-rule="evenodd" d="M58.7065 57.7892H61.712V60.7946H58.7065V57.7892Z" fill="black"/>
<path fill-rule="evenodd" clip-rule="evenodd" d="M61.5688 57.7892H64.5743V60.7946H61.5688V57.7892Z" fill="black"/>
<path fill-rule="evenodd" clip-rule="evenodd" d="M64.4312 57.7892H67.4366V60.7946H64.4312V57.7892Z" fill="black"/>
<path fill-rule="evenodd" clip-rule="evenodd" d="M70.1558 57.7892H73.1613V60.7946H70.1558V57.7892Z" fill="black"/>
<path fill-rule="evenodd" clip-rule="evenodd" d="M75.8805 57.7892H78.8859V60.7946H75.8805V57.7892Z" fill="black"/>
<path fill-rule="evenodd" clip-rule="evenodd" d="M78.7428 57.7892H81.7483V60.7946H78.7428V57.7892Z" fill="black"/>
<path fill-rule="evenodd" clip-rule="evenodd" d="M84.4675 57.7892H87.4729V60.7946H84.4675V57.7892Z" fill="black"/>
<path fill-rule="evenodd" clip-rule="evenodd" d="M93.0545 57.7892H96.0599V60.7946H93.0545V57.7892Z" fill="black"/>
<path fill-rule="evenodd" clip-rule="evenodd" d="M101.641 57.7892H104.647V60.7946H101.641V57.7892Z" fill="black"/>
<path fill-rule="evenodd" clip-rule="evenodd" d="M27.2209 60.6515H30.2264V63.657H27.2209V60.6515Z" fill="black"/>
<path fill-rule="evenodd" clip-rule="evenodd" d="M30.0832 60.6515H33.0887V63.657H30.0832V60.6515Z" fill="black"/>
<path fill-rule="evenodd" clip-rule="evenodd" d="M32.9456 60.6515H35.951V63.657H32.9456V60.6515Z" fill="black"/>
<path fill-rule="evenodd" clip-rule="evenodd" d="M38.6702 60.6515H41.6757V63.657H38.6702V60.6515Z" fill="black"/>
<path fill-rule="evenodd" clip-rule="evenodd" d="M44.3949 60.6515H47.4003V63.657H44.3949V60.6515Z" fill="black"/>
<path fill-rule="evenodd" clip-rule="evenodd" d="M50.1195 60.6515H53.125V63.657H50.1195V60.6515Z" fill="black"/>
<path fill-rule="evenodd" clip-rule="evenodd" d="M58.7065 60.6515H61.712V63.657H58.7065V60.6515Z" fill="black"/>
<path fill-rule="evenodd" clip-rule="evenodd" d="M67.2935 60.6515H70.2989V63.657H67.2935V60.6515Z" fill="black"/>
<path fill-rule="evenodd" clip-rule="evenodd" d="M70.1558 60.6515H73.1613V63.657H70.1558V60.6515Z" fill="black"/>
<path fill-rule="evenodd" clip-rule="evenodd" d="M73.0182 60.6515H76.0236V63.657H73.0182V60.6515Z" fill="black"/>
<path fill-rule="evenodd" clip-rule="evenodd" d="M75.8805 60.6515H78.8859V63.657H75.8805V60.6515Z" fill="black"/>
<path fill-rule="evenodd" clip-rule="evenodd" d="M84.4675 60.6515H87.4729V63.657H84.4675V60.6515Z" fill="black"/>
<path fill-rule="evenodd" clip-rule="evenodd" d="M93.0545 60.6515H96.0599V63.657H93.0545V60.6515Z" fill="black"/>
<path fill-rule="evenodd" clip-rule="evenodd" d="M95.9168 60.6515H98.9223V63.657H95.9168V60.6515Z" fill="black"/>
<path fill-rule="evenodd" clip-rule="evenodd" d="M101.641 60.6515H104.647V63.657H101.641V60.6515Z" fill="black"/>
<path fill-rule="evenodd" clip-rule="evenodd" d="M21.4962 63.5139H24.5017V66.5193H21.4962V63.5139Z" fill="black"/>
<path fill-rule="evenodd" clip-rule="evenodd" d="M24.3586 63.5139H27.364V66.5193H24.3586V63.5139Z" fill="black"/>
<path fill-rule="evenodd" clip-rule="evenodd" d="M32.9456 63.5139H35.951V66.5193H32.9456V63.5139Z" fill="black"/>
<path fill-rule="evenodd" clip-rule="evenodd" d="M41.5326 63.5139H44.538V66.5193H41.5326V63.5139Z" fill="black"/>
<path fill-rule="evenodd" clip-rule="evenodd" d="M47.2572 63.5139H50.2626V66.5193H47.2572V63.5139Z" fill="black"/>
<path fill-rule="evenodd" clip-rule="evenodd" d="M50.1195 63.5139H53.125V66.5193H50.1195V63.5139Z" fill="black"/>
<path fill-rule="evenodd" clip-rule="evenodd" d="M52.9818 63.5139H55.9873V66.5193H52.9818V63.5139Z" fill="black"/>
<path fill-rule="evenodd" clip-rule="evenodd" d="M55.8442 63.5139H58.8496V66.5193H55.8442V63.5139Z" fill="black"/>
<path fill-rule="evenodd" clip-rule="evenodd" d="M64.4312 63.5139H67.4366V66.5193H64.4312V63.5139Z" fill="black"/>
<path fill-rule="evenodd" clip-rule="evenodd" d="M70.1558 63.5139H73.1613V66.5193H70.1558V63.5139Z" fill="black"/>
<path fill-rule="evenodd" clip-rule="evenodd" d="M93.0545 63.5139H96.0599V66.5193H93.0545V63.5139Z" fill="black"/>
<path fill-rule="evenodd" clip-rule="evenodd" d="M101.641 63.5139H104.647V66.5193H101.641V63.5139Z" fill="black"/>
<path fill-rule="evenodd" clip-rule="evenodd" d="M24.3586 66.3762H27.364V69.3816H24.3586V66.3762Z" fill="black"/>
<path fill-rule="evenodd" clip-rule="evenodd" d="M27.2209 66.3762H30.2264V69.3816H27.2209V66.3762Z" fill="black"/>
<path fill-rule="evenodd" clip-rule="evenodd" d="M30.0832 66.3762H33.0887V69.3816H30.0832V66.3762Z" fill="black"/>
<path fill-rule="evenodd" clip-rule="evenodd" d="M35.8079 66.3762H38.8133V69.3816H35.8079V66.3762Z" fill="black"/>
<path fill-rule="evenodd" clip-rule="evenodd" d="M38.6702 66.3762H41.6757V69.3816H38.6702V66.3762Z" fill="black"/>
<path fill-rule="evenodd" clip-rule="evenodd" d="M41.5326 66.3762H44.538V69.3816H41.5326V66.3762Z" fill="black"/>
<path fill-rule="evenodd" clip-rule="evenodd" d="M44.3949 66.3762H47.4003V69.3816H44.3949V66.3762Z" fill="black"/>
<path fill-rule="evenodd" clip-rule="evenodd" d="M47.2572 66.3762H50.2626V69.3816H47.2572V66.3762Z" fill="black"/>
<path fill-rule="evenodd" clip-rule="evenodd" d="M50.1195 66.3762H53.125V69.3816H50.1195V66.3762Z" fill="black"/>
<path fill-rule="evenodd" clip-rule="evenodd" d="M58.7065 66.3762H61.712V69.3816H58.7065V66.3762Z" fill="black"/>
<path fill-rule="evenodd" clip-rule="evenodd" d="M61.5688 66.3762H64.5743V69.3816H61.5688V66.3762Z" fill="black"/>
<path fill-rule="evenodd" clip-rule="evenodd" d="M70.1558 66.3762H73.1613V69.3816H70.1558V66.3762Z" fill="black"/>
<path fill-rule="evenodd" clip-rule="evenodd" d="M75.8805 66.3762H78.8859V69.3816H75.8805V66.3762Z" fill="black"/>
<path fill-rule="evenodd" clip-rule="evenodd" d="M81.6051 66.3762H84.6106V69.3816H81.6051V66.3762Z" fill="black"/>
<path fill-rule="evenodd" clip-rule="evenodd" d="M84.4675 66.3762H87.4729V69.3816H84.4675V66.3762Z" fill="black"/>
<path fill-rule="evenodd" clip-rule="evenodd" d="M87.3298 66.3762H90.3352V69.3816H87.3298V66.3762Z" fill="black"/>
<path fill-rule="evenodd" clip-rule="evenodd" d="M90.1921 66.3762H93.1976V69.3816H90.1921V66.3762Z" fill="black"/>
<path fill-rule="evenodd" clip-rule="evenodd" d="M98.7791 66.3762H101.785V69.3816H98.7791V66.3762Z" fill="black"/>
<path fill-rule="evenodd" clip-rule="evenodd" d="M101.641 66.3762H104.647V69.3816H101.641V66.3762Z" fill="black"/>
<path fill-rule="evenodd" clip-rule="evenodd" d="M24.3586 69.2385H27.364V72.2439H24.3586V69.2385Z" fill="black"/>
<path fill-rule="evenodd" clip-rule="evenodd" d="M27.2209 69.2385H30.2264V72.2439H27.2209V69.2385Z" fill="black"/>
<path fill-rule="evenodd" clip-rule="evenodd" d="M41.5326 69.2385H44.538V72.2439H41.5326V69.2385Z" fill="black"/>
<path fill-rule="evenodd" clip-rule="evenodd" d="M44.3949 69.2385H47.4003V72.2439H44.3949V69.2385Z" fill="black"/>
<path fill-rule="evenodd" clip-rule="evenodd" d="M50.1195 69.2385H53.125V72.2439H50.1195V69.2385Z" fill="black"/>
<path fill-rule="evenodd" clip-rule="evenodd" d="M52.9818 69.2385H55.9873V72.2439H52.9818V69.2385Z" fill="black"/>
<path fill-rule="evenodd" clip-rule="evenodd" d="M55.8442 69.2385H58.8496V72.2439H55.8442V69.2385Z" fill="black"/>
<path fill-rule="evenodd" clip-rule="evenodd" d="M58.7065 69.2385H61.712V72.2439H58.7065V69.2385Z" fill="black"/>
<path fill-rule="evenodd" clip-rule="evenodd" d="M61.5688 69.2385H64.5743V72.2439H61.5688V69.2385Z" fill="black"/>
<path fill-rule="evenodd" clip-rule="evenodd" d="M73.0182 69.2385H76.0236V72.2439H73.0182V69.2385Z" fill="black"/>
<path fill-rule="evenodd" clip-rule="evenodd" d="M87.3298 69.2385H90.3352V72.2439H87.3298V69.2385Z" fill="black"/>
<path fill-rule="evenodd" clip-rule="evenodd" d="M93.0545 69.2385H96.0599V72.2439H93.0545V69.2385Z" fill="black"/>
<path fill-rule="evenodd" clip-rule="evenodd" d="M95.9168 69.2385H98.9223V72.2439H95.9168V69.2385Z" fill="black"/>
<path fill-rule="evenodd" clip-rule="evenodd" d="M101.641 69.2385H104.647V72.2439H101.641V69.2385Z" fill="black"/>
<path fill-rule="evenodd" clip-rule="evenodd" d="M21.4962 72.1008H24.5017V75.1063H21.4962V72.1008Z" fill="black"/>
<path fill-rule="evenodd" clip-rule="evenodd" d="M24.3586 72.1008H27.364V75.1063H24.3586V72.1008Z" fill="black"/>
<path fill-rule="evenodd" clip-rule="evenodd" d="M27.2209 72.1008H30.2264V75.1063H27.2209V72.1008Z" fill="black"/>
<path fill-rule="evenodd" clip-rule="evenodd" d="M30.0832 72.1008H33.0887V75.1063H30.0832V72.1008Z" fill="black"/>
<path fill-rule="evenodd" clip-rule="evenodd" d="M38.6702 72.1008H41.6757V75.1063H38.6702V72.1008Z" fill="black"/>
<path fill-rule="evenodd" clip-rule="evenodd" d="M44.3949 72.1008H47.4003V75.1063H44.3949V72.1008Z" fill="black"/>
<path fill-rule="evenodd" clip-rule="evenodd" d="M55.8442 72.1008H58.8496V75.1063H55.8442V72.1008Z" fill="black"/>
<path fill-rule="evenodd" clip-rule="evenodd" d="M64.4312 72.1008H67.4366V75.1063H64.4312V72.1008Z" fill="black"/>
<path fill-rule="evenodd" clip-rule="evenodd" d="M67.2935 72.1008H70.2989V75.1063H67.2935V72.1008Z" fill="black"/>
<path fill-rule="evenodd" clip-rule="evenodd" d="M70.1558 72.1008H73.1613V75.1063H70.1558V72.1008Z" fill="black"/>
<path fill-rule="evenodd" clip-rule="evenodd" d="M75.8805 72.1008H78.8859V75.1063H75.8805V72.1008Z" fill="black"/>
<path fill-rule="evenodd" clip-rule="evenodd" d="M87.3298 72.1008H90.3352V75.1063H87.3298V72.1008Z" fill="black"/>
<path fill-rule="evenodd" clip-rule="evenodd" d="M90.1921 72.1008H93.1976V75.1063H90.1921V72.1008Z" fill="black"/>
<path fill-rule="evenodd" clip-rule="evenodd" d="M101.641 72.1008H104.647V75.1063H101.641V72.1008Z" fill="black"/>
<path fill-rule="evenodd" clip-rule="evenodd" d="M27.2209 74.9632H30.2264V77.9686H27.2209V74.9632Z" fill="black"/>
<path fill-rule="evenodd" clip-rule="evenodd" d="M30.0832 74.9632H33.0887V77.9686H30.0832V74.9632Z" fill="black"/>
<path fill-rule="evenodd" clip-rule="evenodd" d="M44.3949 74.9632H47.4003V77.9686H44.3949V74.9632Z" fill="black"/>
<path fill-rule="evenodd" clip-rule="evenodd" d="M52.9818 74.9632H55.9873V77.9686H52.9818V74.9632Z" fill="black"/>
<path fill-rule="evenodd" clip-rule="evenodd" d="M58.7065 74.9632H61.712V77.9686H58.7065V74.9632Z" fill="black"/>
<path fill-rule="evenodd" clip-rule="evenodd" d="M61.5688 74.9632H64.5743V77.9686H61.5688V74.9632Z" fill="black"/>
<path fill-rule="evenodd" clip-rule="evenodd" d="M64.4312 74.9632H67.4366V77.9686H64.4312V74.9632Z" fill="black"/>
<path fill-rule="evenodd" clip-rule="evenodd" d="M67.2935 74.9632H70.2989V77.9686H67.2935V74.9632Z" fill="black"/>
<path fill-rule="evenodd" clip-rule="evenodd" d="M70.1558 74.9632H73.1613V77.9686H70.1558V74.9632Z" fill="black"/>
<path fill-rule="evenodd" clip-rule="evenodd" d="M73.0182 74.9632H76.0236V77.9686H73.0182V74.9632Z" fill="black"/>
<path fill-rule="evenodd" clip-rule="evenodd" d="M81.6051 74.9632H84.6106V77.9686H81.6051V74.9632Z" fill="black"/>
<path fill-rule="evenodd" clip-rule="evenodd" d="M84.4675 74.9632H87.4729V77.9686H84.4675V74.9632Z" fill="black"/>
<path fill-rule="evenodd" clip-rule="evenodd" d="M90.1921 74.9632H93.1976V77.9686H90.1921V74.9632Z" fill="black"/>
<path fill-rule="evenodd" clip-rule="evenodd" d="M93.0545 74.9632H96.0599V77.9686H93.0545V74.9632Z" fill="black"/>
<path fill-rule="evenodd" clip-rule="evenodd" d="M98.7791 74.9632H101.785V77.9686H98.7791V74.9632Z" fill="black"/>
<path fill-rule="evenodd" clip-rule="evenodd" d="M101.641 74.9632H104.647V77.9686H101.641V74.9632Z" fill="black"/>
<path fill-rule="evenodd" clip-rule="evenodd" d="M21.4962 77.8255H24.5017V80.8309H21.4962V77.8255Z" fill="black"/>
<path fill-rule="evenodd" clip-rule="evenodd" d="M24.3586 77.8255H27.364V80.8309H24.3586V77.8255Z" fill="black"/>
<path fill-rule="evenodd" clip-rule="evenodd" d="M27.2209 77.8255H30.2264V80.8309H27.2209V77.8255Z" fill="black"/>
<path fill-rule="evenodd" clip-rule="evenodd" d="M35.8079 77.8255H38.8133V80.8309H35.8079V77.8255Z" fill="black"/>
<path fill-rule="evenodd" clip-rule="evenodd" d="M38.6702 77.8255H41.6757V80.8309H38.6702V77.8255Z" fill="black"/>
<path fill-rule="evenodd" clip-rule="evenodd" d="M41.5326 77.8255H44.538V80.8309H41.5326V77.8255Z" fill="black"/>
<path fill-rule="evenodd" clip-rule="evenodd" d="M44.3949 77.8255H47.4003V80.8309H44.3949V77.8255Z" fill="black"/>
<path fill-rule="evenodd" clip-rule="evenodd" d="M47.2572 77.8255H50.2626V80.8309H47.2572V77.8255Z" fill="black"/>
<path fill-rule="evenodd" clip-rule="evenodd" d="M55.8442 77.8255H58.8496V80.8309H55.8442V77.8255Z" fill="black"/>
<path fill-rule="evenodd" clip-rule="evenodd" d="M58.7065 77.8255H61.712V80.8309H58.7065V77.8255Z" fill="black"/>
<path fill-rule="evenodd" clip-rule="evenodd" d="M75.8805 77.8255H78.8859V80.8309H75.8805V77.8255Z" fill="black"/>
<path fill-rule="evenodd" clip-rule="evenodd" d="M78.7428 77.8255H81.7483V80.8309H78.7428V77.8255Z" fill="black"/>
<path fill-rule="evenodd" clip-rule="evenodd" d="M81.6051 77.8255H84.6106V80.8309H81.6051V77.8255Z" fill="black"/>
<path fill-rule="evenodd" clip-rule="evenodd" d="M84.4675 77.8255H87.4729V80.8309H84.4675V77.8255Z" fill="black"/>
<path fill-rule="evenodd" clip-rule="evenodd" d="M87.3298 77.8255H90.3352V80.8309H87.3298V77.8255Z" fill="black"/>
<path fill-rule="evenodd" clip-rule="evenodd" d="M90.1921 77.8255H93.1976V80.8309H90.1921V77.8255Z" fill="black"/>
<path fill-rule="evenodd" clip-rule="evenodd" d="M93.0545 77.8255H96.0599V80.8309H93.0545V77.8255Z" fill="black"/>
<path fill-rule="evenodd" clip-rule="evenodd" d="M95.9168 77.8255H98.9223V80.8309H95.9168V77.8255Z" fill="black"/>
<path fill-rule="evenodd" clip-rule="evenodd" d="M98.7791 77.8255H101.785V80.8309H98.7791V77.8255Z" fill="black"/>
<path fill-rule="evenodd" clip-rule="evenodd" d="M101.641 77.8255H104.647V80.8309H101.641V77.8255Z" fill="black"/>
<path fill-rule="evenodd" clip-rule="evenodd" d="M44.3949 80.6878H47.4003V83.6933H44.3949V80.6878Z" fill="black"/>
<path fill-rule="evenodd" clip-rule="evenodd" d="M47.2572 80.6878H50.2626V83.6933H47.2572V80.6878Z" fill="black"/>
<path fill-rule="evenodd" clip-rule="evenodd" d="M50.1195 80.6878H53.125V83.6933H50.1195V80.6878Z" fill="black"/>
<path fill-rule="evenodd" clip-rule="evenodd" d="M52.9818 80.6878H55.9873V83.6933H52.9818V80.6878Z" fill="black"/>
<path fill-rule="evenodd" clip-rule="evenodd" d="M58.7065 80.6878H61.712V83.6933H58.7065V80.6878Z" fill="black"/>
<path fill-rule="evenodd" clip-rule="evenodd" d="M61.5688 80.6878H64.5743V83.6933H61.5688V80.6878Z" fill="black"/>
<path fill-rule="evenodd" clip-rule="evenodd" d="M75.8805 80.6878H78.8859V83.6933H75.8805V80.6878Z" fill="black"/>
<path fill-rule="evenodd" clip-rule="evenodd" d="M78.7428 80.6878H81.7483V83.6933H78.7428V80.6878Z" fill="black"/>
<path fill-rule="evenodd" clip-rule="evenodd" d="M90.1921 80.6878H93.1976V83.6933H90.1921V80.6878Z" fill="black"/>
<path fill-rule="evenodd" clip-rule="evenodd" d="M93.0545 80.6878H96.0599V83.6933H93.0545V80.6878Z" fill="black"/>
<path fill-rule="evenodd" clip-rule="evenodd" d="M101.641 80.6878H104.647V83.6933H101.641V80.6878Z" fill="black"/>
<path fill-rule="evenodd" clip-rule="evenodd" d="M44.3949 83.5502H47.4003V86.5556H44.3949V83.5502Z" fill="black"/>
<path fill-rule="evenodd" clip-rule="evenodd" d="M50.1195 83.5502H53.125V86.5556H50.1195V83.5502Z" fill="black"/>
<path fill-rule="evenodd" clip-rule="evenodd" d="M52.9818 83.5502H55.9873V86.5556H52.9818V83.5502Z" fill="black"/>
<path fill-rule="evenodd" clip-rule="evenodd" d="M58.7065 83.5502H61.712V86.5556H58.7065V83.5502Z" fill="black"/>
<path fill-rule="evenodd" clip-rule="evenodd" d="M61.5688 83.5502H64.5743V86.5556H61.5688V83.5502Z" fill="black"/>
<path fill-rule="evenodd" clip-rule="evenodd" d="M67.2935 83.5502H70.2989V86.5556H67.2935V83.5502Z" fill="black"/>
<path fill-rule="evenodd" clip-rule="evenodd" d="M70.1558 83.5502H73.1613V86.5556H70.1558V83.5502Z" fill="black"/>
<path fill-rule="evenodd" clip-rule="evenodd" d="M73.0182 83.5502H76.0236V86.5556H73.0182V83.5502Z" fill="black"/>
<path fill-rule="evenodd" clip-rule="evenodd" d="M78.7428 83.5502H81.7483V86.5556H78.7428V83.5502Z" fill="black"/>
<path fill-rule="evenodd" clip-rule="evenodd" d="M84.4675 83.5502H87.4729V86.5556H84.4675V83.5502Z" fill="black"/>
<path fill-rule="evenodd" clip-rule="evenodd" d="M90.1921 83.5502H93.1976V86.5556H90.1921V83.5502Z" fill="black"/>
<path fill-rule="evenodd" clip-rule="evenodd" d="M93.0545 83.5502H96.0599V86.5556H93.0545V83.5502Z" fill="black"/>
<path fill-rule="evenodd" clip-rule="evenodd" d="M95.9168 83.5502H98.9223V86.5556H95.9168V83.5502Z" fill="black"/>
<path fill-rule="evenodd" clip-rule="evenodd" d="M101.641 83.5502H104.647V86.5556H101.641V83.5502Z" fill="black"/>
<path fill-rule="evenodd" clip-rule="evenodd" d="M44.3949 86.4125H47.4003V89.4179H44.3949V86.4125Z" fill="black"/>
<path fill-rule="evenodd" clip-rule="evenodd" d="M61.5688 86.4125H64.5743V89.4179H61.5688V86.4125Z" fill="black"/>
<path fill-rule="evenodd" clip-rule="evenodd" d="M64.4312 86.4125H67.4366V89.4179H64.4312V86.4125Z" fill="black"/>
<path fill-rule="evenodd" clip-rule="evenodd" d="M67.2935 86.4125H70.2989V89.4179H67.2935V86.4125Z" fill="black"/>
<path fill-rule="evenodd" clip-rule="evenodd" d="M70.1558 86.4125H73.1613V89.4179H70.1558V86.4125Z" fill="black"/>
<path fill-rule="evenodd" clip-rule="evenodd" d="M75.8805 86.4125H78.8859V89.4179H75.8805V86.4125Z" fill="black"/>
<path fill-rule="evenodd" clip-rule="evenodd" d="M78.7428 86.4125H81.7483V89.4179H78.7428V86.4125Z" fill="black"/>
<path fill-rule="evenodd" clip-rule="evenodd" d="M90.1921 86.4125H93.1976V89.4179H90.1921V86.4125Z" fill="black"/>
<path fill-rule="evenodd" clip-rule="evenodd" d="M93.0545 86.4125H96.0599V89.4179H93.0545V86.4125Z" fill="black"/>
<path fill-rule="evenodd" clip-rule="evenodd" d="M101.641 86.4125H104.647V89.4179H101.641V86.4125Z" fill="black"/>
<path fill-rule="evenodd" clip-rule="evenodd" d="M47.2572 89.2748H50.2626V92.2803H47.2572V89.2748Z" fill="black"/>
<path fill-rule="evenodd" clip-rule="evenodd" d="M58.7065 89.2748H61.712V92.2803H58.7065V89.2748Z" fill="black"/>
<path fill-rule="evenodd" clip-rule="evenodd" d="M67.2935 89.2748H70.2989V92.2803H67.2935V89.2748Z" fill="black"/>
<path fill-rule="evenodd" clip-rule="evenodd" d="M73.0182 89.2748H76.0236V92.2803H73.0182V89.2748Z" fill="black"/>
<path fill-rule="evenodd" clip-rule="evenodd" d="M75.8805 89.2748H78.8859V92.2803H75.8805V89.2748Z" fill="black"/>
<path fill-rule="evenodd" clip-rule="evenodd" d="M78.7428 89.2748H81.7483V92.2803H78.7428V89.2748Z" fill="black"/>
<path fill-rule="evenodd" clip-rule="evenodd" d="M81.6051 89.2748H84.6106V92.2803H81.6051V89.2748Z" fill="black"/>
<path fill-rule="evenodd" clip-rule="evenodd" d="M84.4675 89.2748H87.4729V92.2803H84.4675V89.2748Z" fill="black"/>
<path fill-rule="evenodd" clip-rule="evenodd" d="M87.3298 89.2748H90.3352V92.2803H87.3298V89.2748Z" fill="black"/>
<path fill-rule="evenodd" clip-rule="evenodd" d="M90.1921 89.2748H93.1976V92.2803H90.1921V89.2748Z" fill="black"/>
<path fill-rule="evenodd" clip-rule="evenodd" d="M47.2572 92.1371H50.2626V95.1426H47.2572V92.1371Z" fill="black"/>
<path fill-rule="evenodd" clip-rule="evenodd" d="M52.9818 92.1371H55.9873V95.1426H52.9818V92.1371Z" fill="black"/>
<path fill-rule="evenodd" clip-rule="evenodd" d="M58.7065 92.1371H61.712V95.1426H58.7065V92.1371Z" fill="black"/>
<path fill-rule="evenodd" clip-rule="evenodd" d="M67.2935 92.1371H70.2989V95.1426H67.2935V92.1371Z" fill="black"/>
<path fill-rule="evenodd" clip-rule="evenodd" d="M75.8805 92.1371H78.8859V95.1426H75.8805V92.1371Z" fill="black"/>
<path fill-rule="evenodd" clip-rule="evenodd" d="M78.7428 92.1371H81.7483V95.1426H78.7428V92.1371Z" fill="black"/>
<path fill-rule="evenodd" clip-rule="evenodd" d="M87.3298 92.1371H90.3352V95.1426H87.3298V92.1371Z" fill="black"/>
<path fill-rule="evenodd" clip-rule="evenodd" d="M90.1921 92.1371H93.1976V95.1426H90.1921V92.1371Z" fill="black"/>
<path fill-rule="evenodd" clip-rule="evenodd" d="M98.7791 92.1371H101.785V95.1426H98.7791V92.1371Z" fill="black"/>
<path fill-rule="evenodd" clip-rule="evenodd" d="M44.3949 94.9995H47.4003V98.0049H44.3949V94.9995Z" fill="black"/>
<path fill-rule="evenodd" clip-rule="evenodd" d="M55.8442 94.9995H58.8496V98.0049H55.8442V94.9995Z" fill="black"/>
<path fill-rule="evenodd" clip-rule="evenodd" d="M58.7065 94.9995H61.712V98.0049H58.7065V94.9995Z" fill="black"/>
<path fill-rule="evenodd" clip-rule="evenodd" d="M61.5688 94.9995H64.5743V98.0049H61.5688V94.9995Z" fill="black"/>
<path fill-rule="evenodd" clip-rule="evenodd" d="M73.0182 94.9995H76.0236V98.0049H73.0182V94.9995Z" fill="black"/>
<path fill-rule="evenodd" clip-rule="evenodd" d="M81.6051 94.9995H84.6106V98.0049H81.6051V94.9995Z" fill="black"/>
<path fill-rule="evenodd" clip-rule="evenodd" d="M90.1921 94.9995H93.1976V98.0049H90.1921V94.9995Z" fill="black"/>
<path fill-rule="evenodd" clip-rule="evenodd" d="M98.7791 94.9995H101.785V98.0049H98.7791V94.9995Z" fill="black"/>
<path fill-rule="evenodd" clip-rule="evenodd" d="M101.641 94.9995H104.647V98.0049H101.641V94.9995Z" fill="black"/>
<path fill-rule="evenodd" clip-rule="evenodd" d="M47.2572 97.8618H50.2626V100.867H47.2572V97.8618Z" fill="black"/>
<path fill-rule="evenodd" clip-rule="evenodd" d="M55.8442 97.8618H58.8496V100.867H55.8442V97.8618Z" fill="black"/>
<path fill-rule="evenodd" clip-rule="evenodd" d="M58.7065 97.8618H61.712V100.867H58.7065V97.8618Z" fill="black"/>
<path fill-rule="evenodd" clip-rule="evenodd" d="M70.1558 97.8618H73.1613V100.867H70.1558V97.8618Z" fill="black"/>
<path fill-rule="evenodd" clip-rule="evenodd" d="M73.0182 97.8618H76.0236V100.867H73.0182V97.8618Z" fill="black"/>
<path fill-rule="evenodd" clip-rule="evenodd" d="M81.6051 97.8618H84.6106V100.867H81.6051V97.8618Z" fill="black"/>
<path fill-rule="evenodd" clip-rule="evenodd" d="M84.4675 97.8618H87.4729V100.867H84.4675V97.8618Z" fill="black"/>
<path fill-rule="evenodd" clip-rule="evenodd" d="M93.0545 97.8618H96.0599V100.867H93.0545V97.8618Z" fill="black"/>
<path fill-rule="evenodd" clip-rule="evenodd" d="M52.9818 100.724H55.9873V103.73H52.9818V100.724Z" fill="black"/>
<path fill-rule="evenodd" clip-rule="evenodd" d="M61.5688 100.724H64.5743V103.73H61.5688V100.724Z" fill="black"/>
<path fill-rule="evenodd" clip-rule="evenodd" d="M67.2935 100.724H70.2989V103.73H67.2935V100.724Z" fill="black"/>
<path fill-rule="evenodd" clip-rule="evenodd" d="M81.6051 100.724H84.6106V103.73H81.6051V100.724Z" fill="black"/>
<path fill-rule="evenodd" clip-rule="evenodd" d="M87.3298 100.724H90.3352V103.73H87.3298V100.724Z" fill="black"/>
<path fill-rule="evenodd" clip-rule="evenodd" d="M90.1921 100.724H93.1976V103.73H90.1921V100.724Z" fill="black"/>
<path fill-rule="evenodd" clip-rule="evenodd" d="M93.0545 100.724H96.0599V103.73H93.0545V100.724Z" fill="black"/>
<path fill-rule="evenodd" clip-rule="evenodd" d="M95.9168 100.724H98.9223V103.73H95.9168V100.724Z" fill="black"/>
<path fill-rule="evenodd" clip-rule="evenodd" d="M101.641 100.724H104.647V103.73H101.641V100.724Z" fill="black"/>
<path fill-rule="evenodd" clip-rule="evenodd" d="M21.4962 22.3834V38.8107C21.4962 39.2893 21.6864 39.7483 22.0248 40.0867C22.3632 40.4251 22.8222 40.6152 23.3008 40.6152H39.728C40.2066 40.6152 40.6656 40.4251 41.004 40.0867C41.3424 39.7483 41.5325 39.2893 41.5325 38.8107V22.3834C41.5325 21.9049 41.3424 21.4459 41.004 21.1075C40.6656 20.7691 40.2066 20.5789 39.728 20.5789H23.3008C22.8222 20.5789 22.3632 20.7691 22.0248 21.1075C21.6864 21.4459 21.4962 21.9049 21.4962 22.3834ZM36.8657 37.7529H26.1631C25.6845 37.7529 25.2255 37.5628 24.8871 37.2244C24.5487 36.886 24.3586 36.427 24.3586 35.9484V25.2458C24.3586 24.7672 24.5487 24.3082 24.8871 23.9698C25.2255 23.6314 25.6845 23.4413 26.1631 23.4413H36.8657C37.3443 23.4413 37.8033 23.6314 38.1417 23.9698C38.4801 24.3082 38.6702 24.7672 38.6702 25.2458V35.9484C38.6702 36.427 38.4801 36.886 38.1417 37.2244C37.8033 37.5628 37.3443 37.7529 36.8657 37.7529Z" fill="black"/>
<path fill-rule="evenodd" clip-rule="evenodd" d="M21.4962 85.3547V101.782C21.4962 102.261 21.6864 102.72 22.0248 103.058C22.3632 103.396 22.8222 103.586 23.3008 103.586H39.728C40.2066 103.586 40.6656 103.396 41.004 103.058C41.3424 102.72 41.5325 102.261 41.5325 101.782V85.3547C41.5325 84.8761 41.3424 84.4171 41.004 84.0787C40.6656 83.7403 40.2066 83.5502 39.728 83.5502H23.3008C22.8222 83.5502 22.3632 83.7403 22.0248 84.0787C21.6864 84.4171 21.4962 84.8761 21.4962 85.3547ZM36.8657 100.724H26.1631C25.6845 100.724 25.2255 100.534 24.8871 100.196C24.5487 99.8572 24.3586 99.3982 24.3586 98.9196V88.217C24.3586 87.7384 24.5487 87.2794 24.8871 86.941C25.2255 86.6026 25.6845 86.4125 26.1631 86.4125H36.8657C37.3443 86.4125 37.8033 86.6026 38.1417 86.941C38.4801 87.2794 38.6702 87.7384 38.6702 88.217V98.9196C38.6702 99.3982 38.4801 99.8572 38.1417 100.196C37.8033 100.534 37.3443 100.724 36.8657 100.724Z" fill="black"/>
<path fill-rule="evenodd" clip-rule="evenodd" d="M84.4675 22.3834V38.8107C84.4675 39.2893 84.6576 39.7483 84.996 40.0867C85.3344 40.4251 85.7934 40.6152 86.272 40.6152H102.699C103.178 40.6152 103.637 40.4251 103.975 40.0867C104.314 39.7483 104.504 39.2893 104.504 38.8107V22.3834C104.504 21.9049 104.314 21.4459 103.975 21.1075C103.637 20.7691 103.178 20.5789 102.699 20.5789H86.272C85.7934 20.5789 85.3344 20.7691 84.996 21.1075C84.6576 21.4459 84.4675 21.9049 84.4675 22.3834ZM99.8369 37.7529H89.1343C88.6557 37.7529 88.1967 37.5628 87.8583 37.2244C87.5199 36.886 87.3298 36.427 87.3298 35.9484V25.2458C87.3298 24.7672 87.5199 24.3082 87.8583 23.9698C88.1967 23.6314 88.6557 23.4413 89.1343 23.4413H99.8369C100.316 23.4413 100.774 23.6314 101.113 23.9698C101.451 24.3082 101.641 24.7672 101.641 25.2458V35.9484C101.641 36.427 101.451 36.886 101.113 37.2244C100.774 37.5628 100.316 37.7529 99.8369 37.7529Z" fill="black"/>
<path fill-rule="evenodd" clip-rule="evenodd" d="M27.2209 28.1081V33.0861C27.2209 33.5647 27.411 34.0236 27.7494 34.362C28.0879 34.7005 28.5468 34.8906 29.0254 34.8906H34.0034C34.482 34.8906 34.941 34.7005 35.2794 34.362C35.6178 34.0236 35.8079 33.5647 35.8079 33.0861V28.1081C35.8079 27.6295 35.6178 27.1705 35.2794 26.8321C34.941 26.4937 34.482 26.3036 34.0034 26.3036H29.0254C28.5468 26.3036 28.0879 26.4937 27.7494 26.8321C27.411 27.1705 27.2209 27.6295 27.2209 28.1081Z" fill="black"/>
<path fill-rule="evenodd" clip-rule="evenodd" d="M90.1921 28.1081V33.0861C90.1921 33.5647 90.3823 34.0236 90.7207 34.362C91.0591 34.7005 91.5181 34.8906 91.9966 34.8906H96.9746C97.4532 34.8906 97.9122 34.7005 98.2506 34.362C98.589 34.0236 98.7791 33.5647 98.7791 33.0861V28.1081C98.7791 27.6295 98.589 27.1705 98.2506 26.8321C97.9122 26.4937 97.4532 26.3036 96.9746 26.3036H91.9966C91.5181 26.3036 91.0591 26.4937 90.7207 26.8321C90.3823 27.1705 90.1921 27.6295 90.1921 28.1081Z" fill="black"/>
<path fill-rule="evenodd" clip-rule="evenodd" d="M27.2209 91.0793V96.0573C27.2209 96.5359 27.411 96.9949 27.7494 97.3333C28.0879 97.6717 28.5468 97.8618 29.0254 97.8618H34.0034C34.482 97.8618 34.941 97.6717 35.2794 97.3333C35.6178 96.9949 35.8079 96.5359 35.8079 96.0573V91.0793C35.8079 90.6008 35.6178 90.1418 35.2794 89.8034C34.941 89.4649 34.482 89.2748 34.0034 89.2748H29.0254C28.5468 89.2748 28.0879 89.4649 27.7494 89.8034C27.411 90.1418 27.2209 90.6008 27.2209 91.0793Z" fill="black"/>
</g>
</g>
<defs>
<clipPath id="clip0_5_2">
<rect width="98" height="98" fill="white" transform="translate(14 13)"/>
</clipPath>
<clipPath id="clip1_5_2">
<rect width="90.2256" height="90.2256" fill="white" transform="translate(17.8872 16.9699)"/>
</clipPath>
</defs>
</svg>
